<?xml version="1.0" encoding="UTF-8"?>
<!DOCTYPE svg
PUBLIC "-//W3C//DTD SVG 1.1//EN"
       "http://www.w3.org/Graphics/SVG/1.1/DTD/svg11.dtd">
<svg version="1.1" xmlns="http://www.w3.org/2000/svg" xmlns:xlink="http://www.w3.org/1999/xlink" viewBox="0 0 275.098 272.754">
 <g>
  <rect height="272.754" opacity="0" width="275.098" x="0" y="0"/>
  <path d="M74.2188 272.754C79.5898 272.754 83.3008 269.922 89.6484 264.258L133.691 225.488L220.02 225.488C255.371 225.488 275.098 205.273 275.098 170.508L275.098 70.8984C275.098 36.0352 255.371 15.8203 220.02 15.8203L55.0781 15.8203C19.6289 15.8203 0 35.9375 0 70.8984L0 170.508C0 205.469 19.6289 225.488 55.0781 225.488L62.4023 225.488L62.4023 259.082C62.4023 267.383 66.6992 272.754 74.2188 272.754ZM78.5156 253.125L78.5156 216.406C78.5156 210.449 76.2695 208.203 70.4102 208.203L55.1758 208.203C29.9805 208.203 17.2852 194.727 17.2852 170.312L17.2852 70.9961C17.2852 46.582 29.9805 33.1055 55.1758 33.1055L219.922 33.1055C244.824 33.1055 257.812 46.582 257.812 70.9961L257.812 170.312C257.812 194.727 244.824 208.203 219.922 208.203L133.301 208.203C127.148 208.203 123.926 209.18 119.629 213.574Z" fill="hsl(0, 0%, 50%)" fill-opacity="1"/>
 </g>
</svg>
