<?xml version="1.0" encoding="UTF-8"?>
<!DOCTYPE svg
PUBLIC "-//W3C//DTD SVG 1.1//EN"
       "http://www.w3.org/Graphics/SVG/1.1/DTD/svg11.dtd">
<svg version="1.1" xmlns="http://www.w3.org/2000/svg" xmlns:xlink="http://www.w3.org/1999/xlink" viewBox="0 0 273.926 273.73">
 <g>
  <rect height="273.73" opacity="0" width="273.926" x="0" y="0"/>
  <path d="M156.25 273.73C164.551 273.73 170.41 266.895 174.609 255.762L258.008 37.8906C259.961 32.8125 261.035 28.3203 261.035 24.6094C261.035 17.1875 256.543 12.5977 249.121 12.5977C245.312 12.5977 240.918 13.7695 235.84 15.7227L16.9922 99.4141C7.12891 103.223 0 109.082 0 117.48C0 127.734 7.61719 131.445 19.1406 134.863L91.1133 156.836C98.1445 158.984 102.441 158.594 107.324 154.102L244.141 25.293C245.703 23.9258 247.363 24.0234 248.535 25.0977C249.805 26.1719 249.707 28.0273 248.438 29.5898L119.922 166.699C115.625 171.387 115.039 175.586 117.188 182.91L138.574 253.711C142.09 265.625 145.801 273.73 156.25 273.73Z" fill="hsl(0, 0%, 95%)" fill-opacity="1"/>
 </g>
</svg>
